<svg width="48" height="48" viewBox="0 0 48 48" fill="none" xmlns="http://www.w3.org/2000/svg">
<path fill-rule="evenodd" clip-rule="evenodd" d="M19.69 16.809L2.904 33.617L1.466 40.49C0.675003 44.269 0.139003 47.473 0.275003 47.609C0.410003 47.745 3.666 47.201 7.51 46.4L14.499 44.944L31.249 28.233C41.042 18.463 47.999 10.742 47.999 9.643C47.999 7.206 40.793 0 38.356 0C37.258 0 29.501 6.985 19.69 16.809ZM43.999 10.218C43.999 13.585 41.044 13.435 37.38 9.885L33.893 6.505L36.102 4.715C38.255 2.972 38.386 2.997 41.156 5.65C42.719 7.148 43.999 9.204 43.999 10.218ZM21.865 23.634C12.12 33.403 9.328 35.688 8.242 34.787C7.142 33.874 9.264 31.259 19.133 21.366C28.878 11.597 31.67 9.312 32.756 10.213C33.856 11.126 31.734 13.741 21.865 23.634ZM26.865 28.634C17.12 38.403 14.328 40.688 13.242 39.787C12.142 38.874 14.264 36.259 24.133 26.366C33.878 16.597 36.67 14.312 37.756 15.213C38.856 16.126 36.734 18.741 26.865 28.634ZM8.17 39.655C10.678 41.925 10.462 43 7.499 43C5.499 43 4.999 42.5 4.999 40.5C4.999 37.571 5.67 37.392 8.17 39.655Z" fill="#277DA1"/>
</svg>
