<svg width="96" height="96" viewBox="0 0 96 96" fill="none" xmlns="http://www.w3.org/2000/svg">
<path d="M20 28C38.48 28 56.96 28 76 28C76.0825 37.1575 76.165 46.315 76.25 55.75C76.2865 58.6372 76.3229 61.5244 76.3604 64.499C76.3721 66.7858 76.3823 69.0726 76.3907 71.3594C76.4111 72.5481 76.4316 73.7367 76.4527 74.9614C76.4532 76.0979 76.4536 77.2344 76.4541 78.4053C76.463 79.3912 76.4719 80.3772 76.4811 81.393C75.8531 84.7964 74.7593 85.956 72 88C69.7237 88.5079 69.7237 88.5079 67.2032 88.5176C66.2554 88.5302 65.3076 88.5428 64.3311 88.5558C62.806 88.5436 62.806 88.5436 61.25 88.5312C59.6746 88.537 59.6746 88.537 58.0674 88.5428C55.8483 88.5456 53.6292 88.5382 51.4102 88.5215C48.0123 88.5001 44.6166 88.5213 41.2188 88.5469C39.0625 88.5442 36.9063 88.5391 34.75 88.5312C33.7333 88.5393 32.7165 88.5474 31.669 88.5558C30.7212 88.5432 29.7734 88.5306 28.7969 88.5176C27.9651 88.5144 27.1334 88.5112 26.2764 88.5079C23.1031 87.7999 21.93 86.5873 20 84C19.519 81.393 19.519 81.393 19.5459 78.4053C19.5464 77.2688 19.5469 76.1323 19.5474 74.9614C19.5679 73.7727 19.5883 72.5841 19.6094 71.3594C19.6134 70.2625 19.6175 69.1657 19.6216 68.0356C19.6425 63.9403 19.6984 59.8451 19.75 55.75C19.8738 42.0138 19.8738 42.0138 20 28ZM32 36C32 50.52 32 65.04 32 80C34.64 80 37.28 80 40 80C40 65.48 40 50.96 40 36C37.36 36 34.72 36 32 36ZM56 36C56 50.52 56 65.04 56 80C58.64 80 61.28 80 64 80C64 65.48 64 50.96 64 36C61.36 36 58.72 36 56 36Z" fill="#277DA1"/>
<path d="M40.9453 7.61182C41.6646 7.60843 42.3839 7.60505 43.125 7.60156C43.9139 7.5977 44.7028 7.59383 45.5156 7.58984C46.3355 7.60145 47.1553 7.61305 48 7.625C49.2298 7.6076 49.2298 7.6076 50.4844 7.58984C51.6677 7.59564 51.6677 7.59564 52.875 7.60156C53.5943 7.60495 54.3136 7.60833 55.0547 7.61182C57 8 57 8 58.4661 9.49292C60.5273 11.518 61.8162 11.4209 64.668 11.5117C65.5606 11.5472 66.4533 11.5826 67.373 11.6191C68.3018 11.6417 69.2306 11.6643 70.1875 11.6875C71.5981 11.7387 71.5981 11.7387 73.0371 11.791C75.358 11.8735 77.6784 11.9426 80 12C80 14.64 80 17.28 80 20C58.88 20 37.76 20 16 20C16 17.36 16 14.72 16 12C16.8852 11.9781 16.8852 11.9781 17.7883 11.9558C20.4637 11.8813 23.1378 11.7847 25.8125 11.6875C27.2057 11.6537 27.2057 11.6537 28.627 11.6191C29.5196 11.5837 30.4123 11.5482 31.332 11.5117C32.1542 11.4855 32.9764 11.4594 33.8235 11.4324C37.0024 10.8009 37.834 8.23268 40.9453 7.61182Z" fill="#277DA1"/>
</svg>
